<?xml version="1.0" encoding="UTF-8"?>
<svg xmlns="http://www.w3.org/2000/svg" version="1.1" viewBox="0 0 158.418 30.76" fill="#253b2f" width="158.418" height="30.76">
  <!-- Generator: Adobe Illustrator 28.7.5, SVG Export Plug-In . SVG Version: 1.2.0 Build 176)  -->
  <g>
    <g id="Layer_1">
      <g>
        <path d="M.217,30.28V.48h9.72c3.227,0,6.026.64,8.4,1.92,2.374,1.28,4.213,3.04,5.52,5.28,1.307,2.24,1.96,4.8,1.96,7.68s-.654,5.448-1.96,7.701c-1.307,2.254-3.146,4.02-5.52,5.3s-5.173,1.92-8.4,1.92H.217ZM6.417,24.88h3.68c1.946,0,3.626-.393,5.04-1.18,1.413-.786,2.513-1.893,3.3-3.32.787-1.426,1.18-3.1,1.18-5.02,0-1.946-.394-3.626-1.18-5.04-.787-1.413-1.887-2.506-3.3-3.28-1.414-.773-3.094-1.16-5.04-1.16h-3.68v19Z"/>
        <path d="M29.337,6.48V.48h6v6h-6ZM29.337,30.28V8.44h6v21.84h-6Z"/>
        <path d="M39.737,30.28V0h6v30.28h-6Z"/>
        <path d="M56.896,30.761c-1.573,0-2.934-.254-4.08-.761-1.146-.506-2.026-1.232-2.64-2.18-.614-.946-.92-2.073-.92-3.38,0-1.227.279-2.313.84-3.26.56-.946,1.42-1.74,2.58-2.381,1.16-.64,2.606-1.093,4.34-1.359l6.68-1.081v4.401l-5.6,1c-.854.159-1.507.434-1.96.819-.454.387-.681.94-.681,1.66,0,.667.254,1.187.761,1.56.506.374,1.133.561,1.88.561.986,0,1.853-.213,2.6-.64.746-.427,1.326-1.007,1.74-1.74.413-.733.62-1.54.62-2.42v-5.681c0-.825-.327-1.52-.98-2.08s-1.54-.84-2.659-.84c-1.067,0-2.008.293-2.82.88-.813.587-1.407,1.36-1.78,2.32l-4.8-2.28c.426-1.227,1.106-2.28,2.04-3.16.933-.88,2.053-1.56,3.36-2.04,1.306-.48,2.732-.72,4.279-.72,1.84,0,3.467.333,4.88,1s2.514,1.594,3.301,2.78c.786,1.187,1.18,2.567,1.18,4.14v14.401h-5.601v-3.52l1.36-.24c-.64.96-1.347,1.754-2.12,2.38-.773.627-1.64,1.094-2.6,1.399-.96.307-2.027.461-3.2.461Z"/>
        <path d="M73.457,30.28V8.44h5.6v5.32l-.6-.88c.319-1.68,1.093-2.92,2.319-3.72,1.227-.8,2.693-1.2,4.4-1.2,1.813,0,3.406.46,4.78,1.38,1.373.92,2.233,2.154,2.58,3.7l-1.721.16c.721-1.786,1.747-3.106,3.08-3.96,1.333-.853,2.894-1.28,4.681-1.28,1.573,0,2.966.347,4.18,1.04,1.213.693,2.166,1.66,2.86,2.9.692,1.24,1.04,2.687,1.04,4.34v14.041h-6v-12.76c0-.854-.154-1.587-.46-2.201-.308-.613-.74-1.093-1.301-1.44-.56-.346-1.239-.52-2.04-.52-.773,0-1.446.174-2.02.52-.574.347-1.014.827-1.32,1.44s-.46,1.347-.46,2.201v12.76h-6v-12.76c0-.854-.153-1.587-.46-2.201s-.74-1.093-1.3-1.44c-.56-.346-1.24-.52-2.04-.52-.773,0-1.447.174-2.02.52-.574.347-1.015.827-1.32,1.44-.307.613-.46,1.347-.46,2.201v12.76h-6Z"/>
        <path d="M121.336,30.761c-2.187,0-4.153-.5-5.9-1.5-1.746-1-3.133-2.367-4.159-4.101-1.027-1.733-1.54-3.68-1.54-5.84s.506-4.1,1.52-5.82,2.4-3.073,4.16-4.06c1.76-.986,3.733-1.48,5.92-1.48,1.626,0,3.133.28,4.521.84,1.386.56,2.572,1.34,3.56,2.34.986,1,1.693,2.18,2.12,3.54l-5.2,2.24c-.374-1.093-1.007-1.96-1.9-2.6s-1.927-.96-3.1-.96c-1.04,0-1.967.254-2.78.76-.813.507-1.453,1.214-1.92,2.12-.467.908-.7,1.948-.7,3.121s.233,2.214.7,3.12,1.106,1.613,1.92,2.12,1.74.76,2.78.76c1.2,0,2.24-.32,3.12-.96s1.506-1.507,1.88-2.601l5.2,2.28c-.4,1.28-1.094,2.427-2.08,3.44-.987,1.014-2.174,1.807-3.56,2.38-1.388.573-2.907.86-4.561.86Z"/>
        <path d="M145.895,30.761c-2.16,0-4.127-.493-5.9-1.48-1.773-.986-3.187-2.34-4.239-4.06-1.054-1.721-1.58-3.674-1.58-5.86,0-2.213.526-4.173,1.58-5.88,1.053-1.707,2.466-3.053,4.239-4.04,1.773-.986,3.74-1.48,5.9-1.48s4.12.494,5.88,1.48c1.76.987,3.166,2.333,4.22,4.04,1.054,1.707,1.58,3.667,1.58,5.88,0,2.187-.526,4.14-1.58,5.86-1.054,1.72-2.46,3.073-4.22,4.06-1.76.987-3.72,1.48-5.88,1.48ZM145.895,25.361c1.093,0,2.046-.253,2.86-.76.812-.507,1.453-1.214,1.92-2.12.466-.906.699-1.946.699-3.12s-.233-2.206-.699-3.1c-.467-.894-1.107-1.601-1.92-2.121-.814-.52-1.768-.78-2.86-.78s-2.054.26-2.88.78c-.827.52-1.474,1.227-1.94,2.121-.467.894-.7,1.927-.7,3.1s.233,2.214.7,3.12,1.113,1.613,1.94,2.12c.826.507,1.786.76,2.88.76Z"/>
      </g>
    </g>
  </g>
</svg>